<svg width="40" height="42" viewBox="0 0 40 42" fill="none" xmlns="http://www.w3.org/2000/svg">
<path d="M7.6281 37C6.34252 37 5.24977 36.5789 4.34986 35.7367C3.44995 34.8945 3 33.8719 3 32.6688V27.5125H8.5978V4L11.2336 6.475L13.8694 4L16.5052 6.475L19.141 4L21.7769 6.475L24.4215 4L27.0661 6.475L29.7107 4L32.3554 6.475L35 4V32.6688C35 33.8719 34.55 34.8945 33.6501 35.7367C32.7502 36.5789 31.6575 37 30.3719 37H7.6281ZM30.3719 34.525C30.9596 34.525 31.4371 34.3531 31.8044 34.0094C32.1717 33.6656 32.3554 33.2188 32.3554 32.6688V8.125H11.2424V27.5125H28.3884V32.6688C28.3884 33.2188 28.5721 33.6656 28.9394 34.0094C29.3067 34.3531 29.7842 34.525 30.3719 34.525ZM13.5785 14.6425V12.1675H24.157V14.6425H13.5785ZM13.5785 20.17V17.695H24.157V20.17H13.5785ZM28.2562 14.6425C27.9036 14.6425 27.595 14.5188 27.3306 14.2713C27.0661 14.0238 26.9339 13.735 26.9339 13.405C26.9339 13.075 27.0661 12.7863 27.3306 12.5388C27.595 12.2913 27.9036 12.1675 28.2562 12.1675C28.6088 12.1675 28.9174 12.2913 29.1818 12.5388C29.4463 12.7863 29.5785 13.075 29.5785 13.405C29.5785 13.735 29.4463 14.0238 29.1818 14.2713C28.9174 14.5188 28.6088 14.6425 28.2562 14.6425ZM28.2562 19.9638C27.9036 19.9638 27.595 19.84 27.3306 19.5925C27.0661 19.345 26.9339 19.0563 26.9339 18.7263C26.9339 18.3963 27.0661 18.1075 27.3306 17.86C27.595 17.6125 27.9036 17.4888 28.2562 17.4888C28.6088 17.4888 28.9174 17.6125 29.1818 17.86C29.4463 18.1075 29.5785 18.3963 29.5785 18.7263C29.5785 19.0563 29.4463 19.345 29.1818 19.5925C28.9174 19.84 28.6088 19.9638 28.2562 19.9638ZM7.58402 34.525H25.7438V29.9875H5.64463V32.6688C5.64463 33.2188 5.83049 33.6656 6.2022 34.0094C6.57392 34.3531 7.03453 34.525 7.58402 34.525Z" fill="black"/>
<path d="M8.78308 3.875H35V6.5H8.78308V3.875Z"/>
</svg>
