<svg width="44" height="43" viewBox="0 0 44 43" fill="none" xmlns="http://www.w3.org/2000/svg">
<path d="M8.43512 20.9142C7.32383 20.9142 6.3866 20.5305 5.62341 19.7632C4.86023 18.9959 4.47864 18.0566 4.47864 16.9453C4.47864 15.834 4.8623 14.8968 5.62962 14.1336C6.39694 13.3704 7.33625 12.9888 8.44753 12.9888C9.55882 12.9888 10.4961 13.3725 11.2592 14.1398C12.0224 14.9071 12.404 15.8464 12.404 16.9577C12.404 18.069 12.0203 19.0062 11.253 19.7694C10.4857 20.5326 9.5464 20.9142 8.43512 20.9142ZM16.5806 13.4291C15.4694 13.4291 14.5321 13.0454 13.7689 12.2781C13.0058 11.5108 12.6242 10.5715 12.6242 9.4602C12.6242 8.34892 13.0078 7.41168 13.7751 6.6485C14.5425 5.88532 15.4818 5.50372 16.5931 5.50372C17.7043 5.50372 18.6416 5.88738 19.4048 6.65471C20.1679 7.42203 20.5495 8.36133 20.5495 9.47262C20.5495 10.5839 20.1659 11.5211 19.3985 12.2843C18.6312 13.0475 17.6919 13.4291 16.5806 13.4291ZM27.5881 13.4291C26.4768 13.4291 25.5396 13.0454 24.7764 12.2781C24.0132 11.5108 23.6316 10.5715 23.6316 9.4602C23.6316 8.34892 24.0153 7.41168 24.7826 6.6485C25.5499 5.88532 26.4892 5.50372 27.6005 5.50372C28.7118 5.50372 29.649 5.88738 30.4122 6.65471C31.1754 7.42203 31.557 8.36133 31.557 9.47262C31.557 10.5839 31.1733 11.5211 30.406 12.2843C29.6387 13.0475 28.6994 13.4291 27.5881 13.4291ZM35.7336 20.9142C34.6223 20.9142 33.6851 20.5305 32.9219 19.7632C32.1587 18.9959 31.7771 18.0566 31.7771 16.9453C31.7771 15.834 32.1608 14.8968 32.9281 14.1336C33.6955 13.3704 34.6348 12.9888 35.746 12.9888C36.8573 12.9888 37.7946 13.3725 38.5577 14.1398C39.3209 14.9071 39.7025 15.8464 39.7025 16.9577C39.7025 18.069 39.3189 19.0062 38.5515 19.7694C37.7842 20.5326 36.8449 20.9142 35.7336 20.9142ZM12.6682 38.9664C11.4354 38.9664 10.4227 38.5037 9.63013 37.5783C8.83759 36.6529 8.44132 35.5599 8.44132 34.2992C8.44132 33.0664 8.81558 31.973 9.56409 31.019C10.3126 30.065 11.1125 29.1478 11.9637 28.2672C12.6095 27.6214 13.2112 26.9389 13.7689 26.2198C14.3266 25.5006 14.855 24.7594 15.354 23.9963C16.2053 22.7047 17.1592 21.5012 18.216 20.3858C19.2727 19.2704 20.5642 18.7127 22.0906 18.7127C23.6169 18.7127 24.9158 19.2704 25.9872 20.3858C27.0586 21.5012 28.0199 22.7194 28.8712 24.0403C29.3702 24.8035 29.8912 25.5373 30.4342 26.2418C30.9773 26.9463 31.5717 27.6214 32.2174 28.2672C33.0687 29.1478 33.8686 30.065 34.6171 31.019C35.3656 31.973 35.7398 33.0664 35.7398 34.2992C35.7398 35.5599 35.3436 36.6529 34.551 37.5783C33.7585 38.5037 32.7458 38.9664 31.513 38.9664C29.9279 38.9664 28.3575 38.8343 26.8018 38.5701C25.246 38.306 23.6757 38.1739 22.0906 38.1739C20.5055 38.1739 18.9351 38.306 17.3794 38.5701C15.8237 38.8343 14.2533 38.9664 12.6682 38.9664Z" fill="black"/>
</svg>
